<svg width="48" height="48" viewBox="0 0 48 48" fill="none" xmlns="http://www.w3.org/2000/svg">
<path d="M36.6999 36.7557L35.4315 35.4785L35.4282 35.4818L36.6999 36.7557ZM24 42L24.0023 40.2H24V42ZM6.00002 24H7.80002L7.80001 23.9975L6.00002 24ZM10.95 11.6025L12.2533 12.844L12.2565 12.8407L10.95 11.6025ZM24 6.00002L23.9978 7.80002L24.0023 7.80001L24 6.00002ZM36.6999 11.2443L35.4294 12.5194L35.4316 12.5215L36.6999 11.2443ZM25.6444 25.8565L24.9208 24.2084L24.9206 24.2084L25.6444 25.8565ZM9.83322 35.6569C9.23937 36.4541 9.40426 37.5818 10.2015 38.1757C10.9988 38.7695 12.1265 38.6046 12.7203 37.8074L9.83322 35.6569ZM18.4709 5.98616C17.7403 5.31191 16.6016 5.3575 15.9273 6.08801C15.253 6.81851 15.2986 7.95729 16.0291 8.63155L18.4709 5.98616ZM28.5 23.1002L30.2001 22.5089L30.2 22.5088L28.5 23.1002ZM30.3987 40.4502C30.6187 41.4197 31.583 42.0271 32.5525 41.8071C33.5219 41.587 34.1294 40.6227 33.9093 39.6533L30.3987 40.4502ZM6.24716 19.9534C5.25485 19.8935 4.40188 20.6494 4.342 21.6417C4.28211 22.634 5.03799 23.4869 6.03029 23.5468L6.24716 19.9534ZM37.8775 12.6359C38.637 11.9946 38.7329 10.8589 38.0915 10.0994C37.4502 9.33979 36.3145 9.24396 35.5549 9.8853L37.8775 12.6359ZM9.01358 30.1644C8.63401 29.2456 7.58148 28.8085 6.66268 29.188C5.74388 29.5676 5.30676 30.6201 5.68633 31.5389L9.01358 30.1644ZM14.5933 41.4266C15.4676 41.8998 16.5599 41.5746 17.033 40.7003C17.5061 39.826 17.1809 38.7336 16.3066 38.2605L14.5933 41.4266ZM31.9214 5.84841C31.0107 5.44992 29.9493 5.86519 29.5508 6.77595C29.1524 7.6867 29.5676 8.74804 30.4784 9.14653L31.9214 5.84841ZM39.18 29.6693C38.8317 30.6004 39.3042 31.6375 40.2353 31.9858C41.1664 32.334 42.2036 31.8615 42.5518 30.9304L39.18 29.6693ZM40.2 24.0023C40.2027 26.1354 39.7827 28.2478 38.9643 30.2176L42.2887 31.5989C43.2897 29.1899 43.8033 26.6064 43.8 23.9977L40.2 24.0023ZM38.9643 30.2176C38.1458 32.1874 36.9451 33.9754 35.4316 35.4785L37.9682 38.0329C39.8193 36.1947 41.2877 34.008 42.2887 31.5989L38.9643 30.2176ZM35.4282 35.4818C33.9271 36.9803 32.1453 38.1683 30.1848 38.9779L31.5588 42.3053C33.9565 41.3152 36.1356 39.8623 37.9716 38.0296L35.4282 35.4818ZM30.1848 38.9779C28.2243 39.7874 26.1234 40.2027 24.0023 40.2L23.9977 43.8C26.5918 43.8033 29.1611 43.2954 31.5588 42.3053L30.1848 38.9779ZM24 40.2C15.0527 40.2 7.80002 32.9473 7.80002 24H4.20002C4.20002 34.9355 13.0645 43.8 24 43.8V40.2ZM7.80001 23.9975C7.79435 19.8453 9.38933 15.8505 12.2533 12.844L9.6467 10.361C6.14386 14.0381 4.19309 18.9239 4.20002 24.0025L7.80001 23.9975ZM12.2565 12.8407C13.7678 11.2459 15.5886 9.97639 17.6074 9.10967L16.1872 5.80164C13.7183 6.86157 11.4917 8.41415 9.64349 10.3644L12.2565 12.8407ZM17.6074 9.10967C19.6263 8.24296 21.8008 7.79731 23.9978 7.80001L24.0022 4.20002C21.3154 4.19672 18.6562 4.74171 16.1872 5.80164L17.6074 9.10967ZM24.0023 7.80001C26.1234 7.79727 28.2243 8.21255 30.1848 9.02212L31.5588 5.69466C29.1611 4.70455 26.5918 4.19666 23.9977 4.20002L24.0023 7.80001ZM30.1848 9.02212C32.1453 9.8317 33.9271 11.0197 35.4282 12.5182L37.9716 9.9704C36.1356 8.1377 33.9565 6.68478 31.5588 5.69466L30.1848 9.02212ZM35.4316 12.5215C36.9451 14.0246 38.1458 15.8126 38.9643 17.7824L42.2887 16.4011C41.2877 13.992 39.8193 11.8053 37.9682 9.96708L35.4316 12.5215ZM38.9643 17.7824C39.7827 19.7522 40.2027 21.8646 40.2 23.9977L43.8 24.0023C43.8033 21.3936 43.2897 18.8101 42.2887 16.4011L38.9643 17.7824ZM42 22.2C39.7087 22.2 31.8591 21.1625 24.9208 24.2084L26.3679 27.5047C32.3986 24.8572 39.0389 25.8 42 25.8V22.2ZM24.9206 24.2084C17.5781 27.4327 12.234 32.4338 9.83322 35.6569L12.7203 37.8074C14.7655 35.0617 19.622 30.467 26.3681 27.5046L24.9206 24.2084ZM16.0291 8.63155C18.7972 11.1865 24.6657 17.5571 26.7999 23.6917L30.2 22.5088C27.7623 15.5016 21.3368 8.63144 18.4709 5.98616L16.0291 8.63155ZM26.7999 23.6916C27.8967 26.8446 28.6601 30.3991 29.2169 33.4966C29.4944 35.0404 29.7178 36.4536 29.9067 37.6401C30.0906 38.7954 30.2518 39.8035 30.3987 40.4502L33.9093 39.6533C33.7951 39.1502 33.6549 38.2859 33.4619 37.0741C33.2739 35.8935 33.0451 34.4447 32.7601 32.8596C32.1919 29.6991 31.3893 25.9277 30.2001 22.5089L26.7999 23.6916ZM6.03029 23.5468C7.78222 23.6526 10.964 23.7527 14.459 23.5101C17.9215 23.2698 21.8496 22.6837 25.0067 21.3355L23.5929 18.0247C20.99 19.1362 17.5377 19.6877 14.2097 19.9188C10.9141 20.1475 7.89543 20.0528 6.24716 19.9534L6.03029 23.5468ZM25.0067 21.3355C31.0697 18.7464 36.2513 14.009 37.8775 12.6359L35.5549 9.8853C33.7809 11.3832 29.0499 15.6944 23.5929 18.0247L25.0067 21.3355ZM5.68633 31.5389C7.43041 35.7607 10.5759 39.2526 14.5933 41.4266L16.3066 38.2605C13.0172 36.4804 10.4417 33.6212 9.01358 30.1644L5.68633 31.5389ZM30.4784 9.14653C32.3236 9.95387 34.0026 11.0977 35.4294 12.5194L37.9704 9.96923C36.2272 8.23233 34.1759 6.83483 31.9214 5.84841L30.4784 9.14653ZM40.2 24C40.2 25.9982 39.8391 27.9069 39.18 29.6693L42.5518 30.9304C43.3597 28.7706 43.8 26.4352 43.8 24H40.2Z" fill="#E3E4E6"/>
</svg>
