<svg width="48" height="48" viewBox="0 0 48 48" fill="none" xmlns="http://www.w3.org/2000/svg">
<path d="M33.8777 33.9211L32.8912 32.9277L32.8886 32.9303L33.8777 33.9211ZM24 38L24.0018 36.6H24V38ZM10 24H11.4L11.4 23.9981L10 24ZM13.85 14.3575L14.8637 15.3231L14.8662 15.3205L13.85 14.3575ZM24 10L23.9983 11.4L24.0018 11.4L24 10ZM33.8777 14.0789L32.8895 15.0706L32.8912 15.0723L33.8777 14.0789ZM25.2789 25.444L24.7162 24.1621L24.7161 24.1621L25.2789 25.444ZM12.9814 33.0665C12.5195 33.6865 12.6478 34.5636 13.2678 35.0255C13.8879 35.4874 14.765 35.3592 15.2269 34.7391L12.9814 33.0665ZM19.6996 9.98924C19.1314 9.46482 18.2457 9.50028 17.7212 10.0684C17.1968 10.6366 17.2323 11.5223 17.8004 12.0468L19.6996 9.98924ZM27.5 23.3002L28.8223 22.8402L28.8223 22.8402L27.5 23.3002ZM28.9767 36.7946C29.1479 37.5486 29.8979 38.0211 30.6519 37.8499C31.4059 37.6788 31.8784 36.9288 31.7073 36.1748L28.9767 36.7946ZM10.1922 20.8526C9.42044 20.806 8.75702 21.3939 8.71044 22.1657C8.66386 22.9375 9.25177 23.601 10.0236 23.6475L10.1922 20.8526ZM34.7936 15.1613C35.3843 14.6624 35.4589 13.7792 34.9601 13.1884C34.4612 12.5976 33.5779 12.5231 32.9872 13.0219L34.7936 15.1613ZM12.3439 28.7945C12.0487 28.0799 11.23 27.7399 10.5154 28.0351C9.8008 28.3304 9.46081 29.149 9.75603 29.8636L12.3439 28.7945ZM16.6836 37.554C17.3637 37.922 18.2132 37.6691 18.5812 36.9891C18.9492 36.3091 18.6963 35.4595 18.0163 35.0915L16.6836 37.554ZM30.1611 9.88209C29.4527 9.57216 28.6273 9.89515 28.3173 10.6035C28.0074 11.3119 28.3304 12.1374 29.0387 12.4473L30.1611 9.88209ZM35.8066 28.4094C35.5358 29.1336 35.9033 29.9403 36.6275 30.2112C37.3517 30.482 38.1583 30.1145 38.4292 29.3903L35.8066 28.4094ZM36.6 24.0018C36.6021 25.6608 36.2755 27.3039 35.6389 28.8359L38.2246 29.9103C39.0031 28.0366 39.4026 26.0272 39.4 23.9982L36.6 24.0018ZM35.6389 28.8359C35.0023 30.368 34.0684 31.7587 32.8912 32.9277L34.8642 34.9145C36.3039 33.4848 37.446 31.784 38.2246 29.9103L35.6389 28.8359ZM32.8886 32.9303C31.721 34.0958 30.3352 35.0198 28.8104 35.6495L29.8791 38.2375C31.744 37.4674 33.4388 36.3373 34.8668 34.9119L32.8886 32.9303ZM28.8104 35.6495C27.2855 36.2791 25.6516 36.6021 24.0018 36.6L23.9982 39.4C26.0158 39.4026 28.0142 39.0076 29.8791 38.2375L28.8104 35.6495ZM24 36.6C17.041 36.6 11.4 30.959 11.4 24H8.60001C8.60001 32.5054 15.4946 39.4 24 39.4V36.6ZM11.4 23.9981C11.3956 20.7685 12.6361 17.6615 14.8637 15.3231L12.8363 13.3919C10.1119 16.2519 8.59463 20.0519 8.60002 24.0019L11.4 23.9981ZM14.8662 15.3205C16.0416 14.0802 17.4578 13.0927 19.028 12.4186L17.9234 9.84572C16.0031 10.6701 14.2713 11.8777 12.8338 13.3945L14.8662 15.3205ZM19.028 12.4186C20.5982 11.7445 22.2895 11.3979 23.9983 11.4L24.0017 8.60001C21.912 8.59745 19.8437 9.02133 17.9234 9.84572L19.028 12.4186ZM24.0018 11.4C25.6516 11.3979 27.2855 11.7209 28.8104 12.3505L29.8791 9.76252C28.0142 8.99243 26.0158 8.5974 23.9982 8.60001L24.0018 11.4ZM28.8104 12.3505C30.3352 12.9802 31.721 13.9042 32.8886 15.0697L34.8668 13.0881C33.4388 11.6627 31.744 10.5326 29.8791 9.76252L28.8104 12.3505ZM32.8912 15.0723C34.0684 16.2413 35.0023 17.632 35.6389 19.1641L38.2246 18.0897C37.446 16.216 36.3039 14.5152 34.8642 13.0855L32.8912 15.0723ZM35.6389 19.1641C36.2755 20.6961 36.6021 22.3392 36.6 23.9982L39.4 24.0018C39.4026 21.9728 39.0031 19.9634 38.2246 18.0897L35.6389 19.1641ZM38 22.6C36.2178 22.6 30.1126 21.793 24.7162 24.1621L25.8417 26.7259C30.5323 24.6667 35.6969 25.4 38 25.4V22.6ZM24.7161 24.1621C19.0052 26.6699 14.8487 30.5596 12.9814 33.0665L15.2269 34.7391C16.8176 32.6035 20.5949 29.0299 25.8418 26.7258L24.7161 24.1621ZM17.8004 12.0468C19.9534 14.0339 24.5178 18.9888 26.1777 23.7602L28.8223 22.8402C26.9262 17.3902 21.9286 12.0467 19.6996 9.98924L17.8004 12.0468ZM26.1777 23.7601C27.0307 26.2125 27.6245 28.9771 28.0576 31.3862C28.2734 32.587 28.4472 33.6861 28.5941 34.609C28.7372 35.5076 28.8625 36.2916 28.9767 36.7946L31.7073 36.1748C31.6184 35.7835 31.5093 35.1113 31.3593 34.1687C31.2131 33.2505 31.035 32.1237 30.8134 30.8908C30.3715 28.4327 29.7472 25.4993 28.8223 22.8402L26.1777 23.7601ZM10.0236 23.6475C11.3862 23.7298 13.8609 23.8077 16.5792 23.619C19.2722 23.432 22.3274 22.9762 24.783 21.9276L23.6834 19.3526C21.6589 20.2171 18.9738 20.646 16.3853 20.8257C13.8221 21.0036 11.4742 20.93 10.1922 20.8526L10.0236 23.6475ZM24.783 21.9276C29.4987 19.9139 33.5288 16.2292 34.7936 15.1613L32.9872 13.0219C31.6074 14.187 27.9277 17.5401 23.6834 19.3526L24.783 21.9276ZM9.75603 29.8636C11.1125 33.1472 13.5591 35.8631 16.6836 37.554L18.0163 35.0915C15.4578 33.707 13.4546 31.4832 12.3439 28.7945L9.75603 29.8636ZM29.0387 12.4473C30.4739 13.0752 31.7798 13.9649 32.8895 15.0706L34.8659 13.0872C33.5101 11.7363 31.9146 10.6493 30.1611 9.88209L29.0387 12.4473ZM36.6 24C36.6 25.5542 36.3193 27.0387 35.8066 28.4094L38.4292 29.3903C39.0575 27.7105 39.4 25.894 39.4 24H36.6Z" fill="#E3E4E6" fill-opacity="0.55"/>
</svg>
